<?xml version="1.0" standalone="no"?>
<!DOCTYPE svg PUBLIC "-//W3C//DTD SVG 20010904//EN"
 "http://www.w3.org/TR/2001/REC-SVG-20010904/DTD/svg10.dtd">
<svg version="1.0" xmlns="http://www.w3.org/2000/svg"
 width="150.000000pt" height="150.000000pt" viewBox="0 0 150.000000 150.000000"
 preserveAspectRatio="xMidYMid meet">
<metadata>
Created by potrace 1.16, written by Peter Selinger 2001-2019
</metadata>
<g transform="translate(0.000000,150.000000) scale(0.100000,-0.100000)"
fill="#000000" stroke="none">
<path d="M681 1100 c-24 -5 -68 -23 -98 -40 -29 -17 -58 -28 -63 -25 -6 4 -10
2 -10 -3 0 -6 23 -31 52 -57 48 -43 50 -47 35 -63 -16 -15 -20 -13 -66 32 -28
27 -55 46 -63 43 -9 -4 -10 -6 0 -6 8 -1 2 -19 -17 -53 -38 -68 -53 -150 -41
-222 8 -53 49 -156 60 -156 3 0 26 20 50 45 33 34 47 42 57 33 21 -17 16 -31
-31 -77 -25 -25 -42 -50 -39 -57 3 -8 9 -12 13 -9 5 3 25 -6 46 -20 95 -65
235 -71 344 -16 33 17 60 27 61 23 0 -4 5 4 10 17 8 21 4 30 -31 66 -28 28
-39 47 -34 58 9 24 15 22 59 -23 30 -30 46 -40 70 -39 16 1 22 3 13 6 -15 4
-14 10 10 56 23 45 26 65 27 142 0 82 -3 96 -33 158 -19 39 -30 72 -26 79 5 7
-19 -11 -51 -40 -53 -46 -61 -50 -74 -37 -14 13 -10 20 34 65 27 27 43 50 36
50 -7 0 -26 9 -41 20 -62 44 -177 66 -259 50z m169 -163 c24 -12 49 -31 56
-42 13 -20 10 -20 -156 -20 l-169 0 22 23 c60 64 167 81 247 39z m94 -154 c15
-4 17 -11 12 -47 -14 -89 -77 -157 -161 -176 -116 -26 -245 71 -245 184 0 38
5 41 110 50 54 4 258 -3 284 -11z"/>
</g>
</svg>
